<svg id="CommunityThumbnail" xmlns="http://www.w3.org/2000/svg" width="64" height="64" viewBox="0 0 64 64" class="CommunityThumbnail"><path id="HPcolor1Opacity" opacity=".75" fill="#2E547B" d="M54.983 24.897L53.183 41c0 .952-2.731 2-6.683 2-1.125 0-2.131-.087-3.002-.23v-1.018c.804.145 1.794.248 3.002.248 3.505 0 5.345-.82 5.695-1.163l1.79-16.017c.172-2.24-1.209-4.459-3.273-5.38C49.473 20.45 47.999 21 46.5 21s-2.973-.55-4.212-1.56c-.933.416-1.714 1.104-2.288 1.928V19.84c.704-.693 1.549-1.242 2.498-1.549C43.603 19.358 44.99 20 46.5 20s2.897-.642 4.002-1.709c2.746.887 4.703 3.709 4.481 6.606zM41 12c0-3.866 2.462-7 5.5-7S52 8.134 52 12s-2.462 7-5.5 7-5.5-3.134-5.5-7zm1 0c0 3.309 2.019 6 4.5 6s4.5-2.691 4.5-6-2.019-6-4.5-6S42 8.691 42 12zM10.017 28.897L11.817 45c0 .952 2.731 2 6.683 2 1.125 0 2.131-.087 3.002-.23v-1.018c-.804.145-1.795.248-3.002.248-3.505 0-5.345-.82-5.695-1.163l-1.79-16.017c-.172-2.24 1.209-4.459 3.273-5.38C15.527 24.45 17.001 25 18.5 25s2.973-.55 4.212-1.56c.933.416 1.714 1.104 2.288 1.928V23.84c-.704-.693-1.549-1.242-2.498-1.549C21.397 23.358 20.01 24 18.5 24s-2.897-.642-4.002-1.709c-2.746.887-4.703 3.709-4.481 6.606zM18.5 23c-3.038 0-5.5-3.134-5.5-7s2.462-7 5.5-7 5.5 3.134 5.5 7-2.462 7-5.5 7zm0-13c-2.481 0-4.5 2.691-4.5 6s2.019 6 4.5 6 4.5-2.691 4.5-6-2.019-6-4.5-6z" class="HPcolor1Opacity"/><path id="HPcolor1" fill="#2E547B" d="M32.118 28C35.361 28 38 24.411 38 20s-2.639-8-5.882-8-5.882 3.589-5.882 8 2.638 8 5.882 8zm-.001-15C34.81 13 37 16.141 37 20s-2.19 7-4.883 7c-2.691 0-4.882-3.141-4.882-7s2.191-7 4.882-7zm4.409 15.285C35.267 29.367 33.749 30 32.117 30c-1.656 0-3.193-.655-4.463-1.767-3.419.891-5.906 4.282-5.634 7.767l2.117 19c0 1.105 3.212 2 7.863 2s7.863-.895 7.863-2l2.117-19c.267-3.423-2.129-6.752-5.454-7.715zm2.347 26.566C38.464 55.241 36.324 56 32 56s-6.464-.759-6.873-1.149L23.015 35.89c-.218-2.801 1.692-5.595 4.418-6.544C28.839 30.43 30.447 31 32.117 31c1.641 0 3.224-.549 4.61-1.594 2.629 1.004 4.469 3.771 4.255 6.516l-2.109 18.929z" class="HPcolor1"/></svg>