<svg id="TutorialsThumbnail" xmlns="http://www.w3.org/2000/svg" width="64" height="64" viewBox="0 0 64 64" class="TutorialsThumbnail"><path id="HPcolor1Opacity" opacity=".75" fill="#2E547B" d="M44 26l-5.06-2.952-.937.611L42.016 26 32 31.843 21.984 26 32 20.157l3.104 1.81.937-.611L32 19l-12 7 4 2.333V35c0 1.105 3.582 2 8 2s8-.895 8-2v-6.667L44 26zm-5 8.832c-.518.43-2.971 1.168-7 1.168s-6.482-.738-7-1.168v-5.915L32 33l7-4.083v5.915zm-6.706-9.84l4.713-3.07.967.564-4.43 2.886c.281.172.456.388.456.628 0 .552-.895 1-2 1s-2-.448-2-1 .895-1 2-1c.106 0 .208.008.31.016l-.016-.024z" class="HPcolor1Opacity"/><path id="HPcolor1" fill="#2E547B" d="M32 4C18.745 4 8 14.745 8 28c0 11.551 8.161 21.193 19.031 23.482L32 60l4.969-8.518C47.839 49.193 56 39.551 56 28 56 14.745 45.255 4 32 4zm4.763 46.504l-.435.092L32 58.016l-4.328-7.42-.435-.092C16.67 48.278 9 38.814 9 28 9 15.317 19.317 5 32 5s23 10.317 23 23c0 10.814-7.67 20.278-18.237 22.504z" class="HPcolor1"/></svg>