<svg id="WhatsNewThumbnail" xmlns="http://www.w3.org/2000/svg" width="64" height="64" viewBox="0 0 64 64" class="WhatsNewThumbnail"><path id="HPcolor1Opacity" opacity=".75" fill="#2E547B" d="M43 35H20v-1h23v1zm0 4H20v1h23v-1zm-7 5H20v1h16v-1zM20 24v6h18v-6H20zm17 5H21v-4h16v4zm17-18.482l-4.505-1.429 1.032-4.677-4.356 1.842L44 2l-2.171 4.255-4.356-1.842 1.031 4.677L34 10.518l3.752 2.911-2.545 4.037 4.713-.218.607 4.752L44 18.756 47.473 22l.607-4.752 4.711.218-2.542-4.037L54 10.518z" class="HPcolor1Opacity"/><path id="HPcolor1" fill="#2E547B" d="M51 22v33H12V6h22v1H13v47h37V22h1z" class="HPcolor1"/></svg>